<svg xmlns="http://www.w3.org/2000/svg" viewBox="0 0 688 151"><path d="M97.064 93.234c0-10.593-3.822-19.676-11.459-27.24-7.64-7.638-16.756-11.46-27.35-11.46-10.522 0-19.602 3.822-27.24 11.46-7.64 7.564-11.458 16.647-11.458 27.24 0 10.594 3.819 19.711 11.458 27.35 7.638 7.565 16.718 11.346 27.24 11.346 10.522 0 19.638-3.781 27.35-11.346 7.637-7.64 11.459-16.756 11.459-27.35m0 55.347v-16.65c-10.883 12.18-24.43 18.27-40.645 18.27-15.351 0-28.431-5.62-39.24-16.863C6.44 122.026 1.072 108.656 1.072 93.234c0-15.71 5.584-29.149 16.756-40.32 11.24-11.243 24.717-16.867 40.427-16.867 15.783 0 29.258 5.624 40.43 16.866 11.17 11.172 16.756 24.61 16.756 40.32v55.347l-18.377.001zm87.018-.001H157.49L117.277 37.887h19.565l33.944 92.963 33.943-92.965h19.565L184.082 148.58zm134.725-55.346c0-10.593-3.821-19.676-11.458-27.24-7.64-7.638-16.756-11.46-27.35-11.46-10.522 0-19.602 3.822-27.24 11.46-7.64 7.564-11.458 16.647-11.458 27.24 0 10.594 3.818 19.711 11.457 27.35 7.64 7.565 16.72 11.346 27.241 11.346 10.522 0 19.638-3.781 27.35-11.346 7.637-7.64 11.458-16.756 11.458-27.35m0 55.347v-16.65c-10.882 12.18-24.43 18.27-40.645 18.27-15.35 0-28.43-5.62-39.24-16.863-10.739-11.312-16.107-24.682-16.107-40.104 0-15.71 5.584-29.149 16.756-40.32C250.813 41.67 264.29 36.046 280 36.046c15.783 0 29.258 5.624 40.43 16.866 11.169 11.172 16.755 24.61 16.755 40.32v55.347l-18.377.001zm112.89-.001V84.044c0-8.143-2.92-15.096-8.754-20.864-5.767-5.763-12.685-8.647-20.756-8.647-8.147 0-15.099 2.884-20.861 8.647-5.768 5.768-8.65 12.721-8.65 20.864v64.536h-18.485V84.044c0-12.683 4.827-23.853 14.485-33.51 9.658-9.655 20.827-14.486 33.511-14.486 12.61 0 23.745 4.83 33.404 14.487 9.656 9.656 14.484 20.826 14.484 33.509v64.536h-18.377zm173.928-55.346c0-10.593-3.82-19.676-11.458-27.24-7.64-7.638-16.755-11.46-27.347-11.46-10.524 0-19.605 3.822-27.243 11.46-7.64 7.564-11.458 16.647-11.458 27.24 0 10.594 3.818 19.711 11.458 27.35 7.638 7.565 16.72 11.346 27.242 11.346 10.52 0 19.636-3.781 27.348-11.346 7.64-7.64 11.458-16.756 11.458-27.35m18.377 0c0 15.711-5.585 29.151-16.754 40.32-11.099 11.099-24.576 16.647-40.43 16.647-15.782 0-29.26-5.548-40.429-16.647-11.172-11.169-16.754-24.609-16.754-40.32 0-15.71 5.582-29.149 16.754-40.32 11.243-11.243 24.718-16.867 40.43-16.867 15.78 0 29.257 5.624 40.429 16.866 11.17 11.172 16.754 24.61 16.754 40.32m42.268-30.052c-5.766 5.768-8.648 12.72-8.648 20.863v64.537h-18.485V84.044c0-12.682 4.827-23.853 14.485-33.508 9.656-9.657 20.827-14.488 33.51-14.488v18.485c-8.144 0-15.098 2.884-20.862 8.647m-175.434 60.29c-6.753-7.018-10.403-15.53-10.75-25.21V56.372h22.486V37.887h-22.485V1.024h-17.152v98.137h.04c.333 14.288 4.473 26.665 14.546 37.127 7.287 7.573 15.671 12.084 25.15 14.328l.48-18.482c-4.536-1.96-8.64-4.849-12.315-8.664" fill="#E31837" fill-rule="nonzero"/></svg>